<?xml version="1.0" ?><svg data-name="027_APPLIANCES" id="_027_APPLIANCES" viewBox="0 0 24 24" xmlns="http://www.w3.org/2000/svg"><defs><style>.cls-1{fill:#333;}</style></defs><path class="cls-1" d="M18,22H6a3,3,0,0,1-3-3V5A3,3,0,0,1,6,2H18a3,3,0,0,1,3,3V19A3,3,0,0,1,18,22ZM6,4A1,1,0,0,0,5,5V19a1,1,0,0,0,1,1H18a1,1,0,0,0,1-1V5a1,1,0,0,0-1-1Z"/><path class="cls-1" d="M11,7a1,1,0,0,1,1-1h0a1,1,0,0,1,1,1h0a1,1,0,0,1-1,1h0A1,1,0,0,1,11,7ZM7,7A1,1,0,0,1,8,6H8A1,1,0,0,1,9,7H9A1,1,0,0,1,8,8H8A1,1,0,0,1,7,7Z"/><path class="cls-1" d="M12,18.52a3.52,3.52,0,0,1-3.58-3.45c0-2.46,2.6-5,2.89-5.28a1,1,0,0,1,1.38,0c.29.28,2.89,2.82,2.89,5.28A3.52,3.52,0,0,1,12,18.52ZM12,12a5.86,5.86,0,0,0-1.58,3.08A1.52,1.52,0,0,0,12,16.52a1.52,1.52,0,0,0,1.58-1.45A5.86,5.86,0,0,0,12,12Z"/></svg>