<?xml version="1.0" ?><svg id="Layer_18" style="enable-background:new 0 0 128 128;" version="1.1" viewBox="0 0 128 128" xml:space="preserve" xmlns="http://www.w3.org/2000/svg" xmlns:xlink="http://www.w3.org/1999/xlink"><style type="text/css">
	.st0{fill:#B76D02;}
	.st1{fill:#E20505;}
	.st2{fill:#FF1D1D;}
	.st3{fill:#919191;}
	.st4{fill:#C1C1C1;}
	.st5{fill:#FCA22B;}
	.st6{fill:#231F20;}
</style><path class="st0" d="M89.1,51.8c1.8,1.5-5.2,4.8-11.3,5.5c-2.3,0.3-9.2,0.4-14.9,0.5l12.1-39.3c3.8,0.2,8.8,0.5,9.8,1.3  c3.2,2.4,6.2,6.5,6.2,6.5S87.4,50.3,89.1,51.8z"/><path class="st1" d="M90.9,100.3c-2.1,0.2-12.5,10-12.5,10s-23.4-2-31.5-3.2l12.1-36c0.4,0.2,2.1,1,2.9,1.1c10.9,1.1,9-4.6,10.2-4.6  s5.3,2.3,5.3,2.3l10.7-1.5C88.9,73.8,92.9,100.1,90.9,100.3z"/><path class="st2" d="M60.3,71.8l-10.8,35.3c-1.7-0.3-2.8-0.5-3.1-0.6c-1.5-0.8-0.4-3-0.8-8.7c-0.4-5.7-2.1-26.6-2.1-26.6  c8,1.2,7.8-2.2,11.9-2.1C58.8,69.2,58.1,71,60.3,71.8z"/><path class="st3" d="M95.1,63.3l-15.2,7.3L72.4,67c0,0-10.4,8-13.8,6.5l5.1-16.7l14.7,0.4l11.3-3.4L95.1,63.3z"/><path class="st4" d="M64.8,57l-5.1,16.7c-0.2-0.1-0.5-0.3-0.6-0.5c-2.7-3.2-3.4-5-5-4.6s-7.8,4.3-8.5,3.4  c-0.7-0.8-12.1-7.3-12.1-7.3l10-8.1L64.8,57z"/><path class="st5" d="M76.7,18.4L64.6,57.7c-9.4,0.1-20-0.3-20.4-1c-0.6-1.2-3.7-34.9-3.7-34.9l18.1-3.1  C58.6,18.6,68.9,18.1,76.7,18.4z"/><path class="st6" d="M97.1,63.3c0-0.9-0.3-1.6-0.8-2.3c-1.6-2.5-5.2-11.1-5.4-12.9c-0.4-3.3,2.2-20.1,1.9-21.9  c-0.4-2.7-5.6-7.9-6-8.1c-6.5-2.8-15.8-2.2-22.7-1.9c-8.3,0.4-23.8,4.5-24.4,4.5c-2.4,0,2.4,33.2,2.5,33.7  c-2.1,3.8-6.4,6.8-10.2,8.6c-1.5,0.7-1.4,3.1,0,3.8c3.2,1.6,6.4,3.3,9.6,4.9v0.1c1.2,7.3,1.9,14.6,2.1,22c0.1,3.7-0.5,7.7-0.1,11.4  c0.1,1.6,0.3,2.4,1.7,3.4c1.8,1.3,27.5,3.4,33.3,3.5c0.4,0.1,3-0.8,3.2-1.7c1.6-1.6,3.1-3.2,4.8-4.6c1.5-1.3,4.3-2.2,5.5-3.6  c1.4-1.6,0.7-4.1,0.5-6c-0.5-3.3-1.2-7.1-1.4-10.5c-0.4-5.9-2.1-10.8-0.6-17C93.1,67.6,97,66.4,97.1,63.3z M73.3,20.6  c3.1,0.1,6.9,0,9.9,0.8c-0.7,2.9-1.3,5.9-1.9,8.9c-2.9,0-5.9,0-8.8,0.1C72.7,27.1,73,23.8,73.3,20.6z M86.7,42.8  c-0.1,0.8-0.1,1.6-0.1,2.3c-1.1-0.5-2.2-1.2-3.3-1.9c0.4-2.4,0.8-4.7,1.2-7.1c0.2,0.2,0.3,0.4,0.5,0.6c0.6,0.7,1.2,1.4,1.9,2.1  C86.9,40.2,86.8,41.5,86.7,42.8z M80.4,34.7c-0.5,2.4-0.9,4.8-1.3,7.3c-2.5-0.4-5.1-0.4-7.6-0.4c0.2-2.3,0.4-4.5,0.6-6.8  C74.8,34.7,77.6,34.7,80.4,34.7z M67.1,41.4c-3.3,0-6.5,0.1-9.8,0.3c0-2.1,0.1-4.2,0.3-6.4c3.3-0.2,6.7-0.4,10.1-0.5  C67.4,37.1,67.3,39.2,67.1,41.4z M53,42.1c-2.7,0.3-5.3,0.6-8,1.1c-0.3-2.2-0.5-4.3-0.8-6.5c3-0.4,6-0.7,9-1  C53.1,37.8,53,39.9,53,42.1z M43.7,32.3c-0.3-2.6-0.6-5.3-1-7.9c3.7-1.1,7.5-2,11.3-2.6c-0.2,3.2-0.4,6.3-0.6,9.5  C50.2,31.6,46.9,31.9,43.7,32.3z M46.5,55c0-0.1-0.6-5.1-0.9-7.5c2.5-0.4,4.9-0.8,7.4-1c0.1,3.1,0.3,6.2,0.6,9.2  C51.8,55.7,48.2,56,46.5,55z M58,55.8c-0.5-3.2-0.7-6.5-0.7-9.7c3.2-0.2,6.3-0.3,9.5-0.3c-0.2,3.3-0.4,6.7-0.5,10  C64.8,55.9,59.3,55.9,58,55.8z M71.2,45.9c2.4,0.1,4.9,0.1,7.3,0.5c-0.4,3-0.8,6-1,9c-2.2,0.1-4.5,0.2-6.7,0.3  C70.8,52.5,70.9,49.2,71.2,45.9z M82.6,47.8c1.4,0.7,2.8,1.6,4.3,2c0.1,0.8,0.3,1.7,0.5,2.6c-0.7,0-1.4,0-2,0.2  c-1.2,0.3-2.4,0.8-3.6,1.3C82.1,51.8,82.4,49.8,82.6,47.8z M87.5,31.8c0,0.3-0.1,0.7-0.1,1c-0.5-0.6-1.1-1.3-1.8-1.7  c0.4-2.2,0.9-4.4,1.4-6.5c0.7,0.9,1.3,1.9,1.3,3.1C88.3,28,87.5,31.3,87.5,31.8z M68.9,20.5c-0.3,3.3-0.5,6.6-0.8,9.9  c-3.4,0.1-6.8,0.3-10.2,0.5c0.2-3.1,0.6-9.7,0.6-9.8C59.7,21,66.7,20.5,68.9,20.5z M37.9,64.9c2.7-1.6,5.1-3.4,6.8-6  c3.1,1.5,32.1,1.1,35,0.8c2.2-0.6,5-2.3,7.3-2.8c0.5-0.1,1.1-0.1,1.6-0.2c0.3,1.4,0.8,2.8,1.7,4c0-0.1,1.5,1.9,2,2.5  c-0.8,0-3.7,1.5-3.6,1.4c-2.1,0.9-4.4,2.1-6.6,2.7c-2.2,0.7-2.9,1-5-0.3c-1.6-1-2.5-2.2-4.5-2.6c-1.1-0.2-2.5,0.3-2.7,1.5  c-0.4,2.8-3.3,3.4-5.5,4.3c-2.4,0.9-3,1.5-4.6-0.4c-1.4-1.6-2-3.4-4.6-3.4c-3.3,0.1-4.1,3.7-7.8,3.1c-2-0.3-4.7-2.4-6.5-3.3  C39.8,65.9,38.8,65.4,37.9,64.9z M48,104.9c-0.4-5.5,0.2-11.2-0.1-16.7c-0.3-4.7-0.8-9.4-1.5-14.1c0.7,0.2,1.4,0.4,2.1,0.4  c1.7,0.1,2.8-0.4,4.1-1.4c0.5-0.4,1.9-2.1,2.7-1.8c0.3,0.1,1.1,2.4,1.3,2.7c2.4,3.3,5.5,1.9,8.7,0.6c3-1.1,6.3-2.4,7.8-5  c1.2,0.8,2.2,2,3.6,2.7c-0.5,11.8-0.8,23.6,0.5,35.4C72.2,107.4,50.2,105.6,48,104.9z M88.9,98.9c-2.4,1.3-5.6,3.7-7.6,5.7  c-1-10.6-0.6-21.4-0.2-32c1.7-0.4,4.3-1.5,6-2.3C86.1,77.7,90,98.3,88.9,98.9z"/></svg>