<?xml version="1.0" ?><svg id="Layer_1" style="enable-background:new 0 0 48 48;" version="1.1" viewBox="0 0 48 48" xml:space="preserve" xmlns="http://www.w3.org/2000/svg" xmlns:xlink="http://www.w3.org/1999/xlink"><style type="text/css">
	.st0{fill:#D0D2D3;}
	.st1{fill:#231F20;}
	.st2{fill:#F6921E;}
	.st3{fill:#6D6E70;}
	.st4{fill:#BE1E2D;}
	.st5{fill:#F1F1F2;}
	.st6{fill:#404041;}
	.st7{fill:#A6A8AB;}
	.st8{fill:#1B75BB;}
	.st9{fill:#FFDD15;}
	.st10{fill:#F05A28;}
	.st11{fill:#00A69C;}
</style><g><g><circle class="st0" cx="24.14" cy="25.03" r="10.09"/><path class="st1" d="M24.14,35.62c-5.84,0-10.59-4.75-10.59-10.59c0-5.84,4.75-10.59,10.59-10.59s10.59,4.75,10.59,10.59    C34.73,30.87,29.98,35.62,24.14,35.62z M24.14,15.44c-5.29,0-9.59,4.3-9.59,9.59c0,5.29,4.3,9.59,9.59,9.59    c5.29,0,9.59-4.3,9.59-9.59C33.73,19.75,29.43,15.44,24.14,15.44z"/></g><g><g><circle class="st2" cx="24" cy="24.34" r="1.68"/><path class="st1" d="M24,26.53c-1.2,0-2.18-0.98-2.18-2.18c0-1.2,0.98-2.18,2.18-2.18s2.18,0.98,2.18,2.18     C26.18,25.55,25.2,26.53,24,26.53z M24,23.16c-0.65,0-1.18,0.53-1.18,1.18s0.53,1.18,1.18,1.18s1.18-0.53,1.18-1.18     S24.65,23.16,24,23.16z"/></g><g><path class="st2" d="M24,6.27C14.21,6.27,6.27,14.21,6.27,24c0,9.79,7.94,17.73,17.73,17.73c9.79,0,17.73-7.94,17.73-17.73     C41.73,14.21,33.79,6.27,24,6.27z M24,30.42c-3.45,0-6.25-2.8-6.25-6.25c0-3.45,2.8-6.25,6.25-6.25s6.25,2.8,6.25,6.25     C30.25,27.62,27.45,30.42,24,30.42z"/><path class="st1" d="M24,42.23C13.95,42.23,5.77,34.05,5.77,24S13.95,5.77,24,5.77S42.23,13.95,42.23,24S34.05,42.23,24,42.23z      M24,6.77C14.5,6.77,6.77,14.5,6.77,24c0,9.5,7.73,17.23,17.23,17.23S41.23,33.5,41.23,24C41.23,14.5,33.5,6.77,24,6.77z      M24,30.92c-3.72,0-6.75-3.03-6.75-6.75c0-3.72,3.03-6.75,6.75-6.75s6.75,3.03,6.75,6.75C30.75,27.89,27.72,30.92,24,30.92z      M24,18.42c-3.17,0-5.75,2.58-5.75,5.75s2.58,5.75,5.75,5.75s5.75-2.58,5.75-5.75S27.17,18.42,24,18.42z"/></g><g><path class="st1" d="M9.55,21.16c-0.04,0-0.07,0-0.11-0.01c-0.27-0.06-0.44-0.33-0.38-0.6c1.26-5.61,5.67-10.12,11.26-11.5     c0.28-0.07,0.54,0.1,0.61,0.37c0.07,0.27-0.1,0.54-0.37,0.6c-5.22,1.29-9.35,5.51-10.52,10.75C9.99,21,9.78,21.16,9.55,21.16z"/></g><g><path class="st1" d="M28.23,38.6c-0.22,0-0.41-0.14-0.48-0.36c-0.08-0.26,0.07-0.54,0.34-0.62c4.8-1.43,8.55-5.34,9.78-10.19     c0.07-0.27,0.33-0.43,0.61-0.36c0.27,0.07,0.43,0.34,0.36,0.61c-1.31,5.2-5.32,9.37-10.46,10.91     C28.33,38.59,28.28,38.6,28.23,38.6z"/></g><g><path class="st1" d="M13.13,27.3c-0.24,0-0.45-0.17-0.49-0.41c-0.59-3.39,0.33-6.85,2.54-9.48c0.18-0.21,0.49-0.24,0.7-0.06     c0.21,0.18,0.24,0.49,0.06,0.7c-2.02,2.41-2.87,5.57-2.32,8.67c0.05,0.27-0.13,0.53-0.41,0.58C13.19,27.3,13.16,27.3,13.13,27.3z     "/></g><g><path class="st1" d="M33.05,31.98c-0.1,0-0.21-0.03-0.3-0.1c-0.22-0.16-0.27-0.48-0.11-0.7c1.96-2.67,2.58-6.15,1.64-9.32     c-0.08-0.27,0.07-0.54,0.34-0.62c0.26-0.08,0.54,0.07,0.62,0.34c1.03,3.47,0.36,7.28-1.79,10.2     C33.36,31.91,33.21,31.98,33.05,31.98z"/></g></g></g></svg>