<?xml version="1.0" ?><svg data-name="Layer 2" id="Layer_2" viewBox="0 0 272 272" xmlns="http://www.w3.org/2000/svg"><defs><style>.cls-1{fill:#e2e3e5;}.cls-2{fill:#c8cace;}.cls-3{fill:#2196f3;}</style></defs><title/><path class="cls-1" d="M24,48V256c0,4.42,3.19,8,7.13,8H244.88c3.94,0,7.13-3.58,7.13-8V48Z"/><path class="cls-2" d="M24,48V16c0-4.42,3.19-8,7.13-8H244.88c3.94,0,7.13,3.58,7.13,8V48Z"/><path class="cls-2" d="M211,156a74.07,74.07,0,0,1-.42,7.92,75,75,0,0,1-149.35-2Q61,159,61,156a75,75,0,0,1,150,0Z"/><path class="cls-3" d="M196,161.15A12,12,0,0,1,176.17,152a12,12,0,0,1-24.09,0A12,12,0,0,1,128,152a12,12,0,0,1-24.09,0,12,12,0,0,1-24.09,0A11.93,11.93,0,0,1,76,160.76a60.24,60.24,0,0,0,119.9,1.58C195.95,161.94,196,161.54,196,161.15Z"/><circle class="cls-1" cx="42" cy="28" r="10"/><circle class="cls-1" cx="66" cy="28" r="10"/></svg>