<?xml version="1.0" ?><!DOCTYPE svg  PUBLIC '-//W3C//DTD SVG 1.1//EN'  'http://www.w3.org/Graphics/SVG/1.1/DTD/svg11.dtd'><svg enable-background="new 0 0 75 75" height="75px" id="Layer_1" version="1.1" viewBox="0 0 75 75" width="75px" xml:space="preserve" xmlns="http://www.w3.org/2000/svg" xmlns:xlink="http://www.w3.org/1999/xlink"><g><g><g><path d="M52.373,31.948h-8.447h-12.85h-8.449c-2.299,0-4.164,1.863-4.164,4.164v0.834     c0,2.299,1.865,4.162,4.164,4.162h5.4v9.531c-0.004,0.008-0.012,0.014-0.014,0.021l-3.061,7.389     c-2.029-0.623-4.23,0.369-5.061,2.369l-0.32,0.77c-0.881,2.123,0.129,4.561,2.254,5.441l3.471,1.438     c0.004,0.002,0.008,0.004,0.01,0.006l0.771,0.318c2.123,0.881,4.561-0.129,5.441-2.252l4.379-10.568h3.205L43.48,66.14     c0.883,2.123,3.316,3.133,5.441,2.252l0.77-0.318c0.004-0.002,0.006-0.004,0.01-0.006l3.473-1.438     c2.125-0.881,3.133-3.318,2.254-5.441l-0.32-0.77c-0.83-2-3.031-2.992-5.062-2.369l-3.061-7.389     c-0.002-0.008-0.008-0.014-0.012-0.021v-9.531h5.4c2.299,0,4.164-1.863,4.164-4.162v-0.834     C56.537,33.812,54.672,31.948,52.373,31.948z" fill="#0CAFAF"/><path d="M56.477,37.54c-0.293-2.014-2.008-3.566-4.104-3.566h-8.447h-12.85h-8.449     c-2.096,0-3.812,1.553-4.104,3.566c0.291,2.016,2.008,3.568,4.104,3.568h5.4v2.025v7.506v2.025     c-0.004,0.006-0.012,0.012-0.014,0.02l-3.061,7.389c-2.029-0.621-4.23,0.371-5.061,2.369l-0.32,0.771     c-0.08,0.191-0.127,0.389-0.176,0.586c0.312,1.229,1.166,2.307,2.43,2.83l3.471,1.438c0.004,0.002,0.008,0.004,0.01,0.006     l0.771,0.318c2.123,0.881,4.561-0.129,5.441-2.252l4.379-10.568h3.205L43.48,66.14c0.883,2.123,3.316,3.133,5.441,2.252     l0.77-0.318c0.004-0.002,0.006-0.004,0.01-0.006l3.473-1.438c1.262-0.523,2.117-1.602,2.43-2.83     c-0.051-0.197-0.096-0.395-0.176-0.586l-0.32-0.771c-0.83-1.998-3.031-2.99-5.062-2.369l-3.061-7.389     c-0.002-0.008-0.008-0.014-0.012-0.02V50.64v-7.506v-2.025h5.4C54.469,41.108,56.184,39.556,56.477,37.54z" fill="#109BAD"/><line fill="#BC2A54" x1="45.275" x2="50.674" y1="41.108" y2="41.108"/><line fill="#BC2A54" x1="22.279" x2="29.723" y1="41.108" y2="41.108"/><line fill="#BC2A54" x1="34.201" x2="40.801" y1="55.571" y2="55.571"/></g><g><g><path d="M21.498,40.173c0,0.494-0.66,0.895-1.471,0.895h-2.062c-0.812,0-1.473-0.4-1.473-0.895v-6.838      c0-0.492,0.66-0.893,1.473-0.893h2.062c0.811,0,1.471,0.4,1.471,0.893V40.173z" fill="#EAE8C3"/></g><g><path d="M58.508,40.173c0,0.494-0.66,0.895-1.475,0.895h-2.061c-0.812,0-1.473-0.4-1.473-0.895v-6.838      c0-0.492,0.66-0.893,1.473-0.893h2.061c0.814,0,1.475,0.4,1.475,0.893V40.173z" fill="#EAE8C3"/></g></g><g><path d="M31.52,66.14l1.785-4.312c-0.184-1.229-0.752-2.188-1.666-2.578l-6.094-2.623l-0.592,1.424     c-2.029-0.623-4.23,0.369-5.061,2.369l-0.32,0.77c-0.881,2.123,0.129,4.561,2.254,5.441l3.471,1.438     c0.004,0.002,0.008,0.004,0.01,0.006l0.771,0.318C28.201,69.272,30.639,68.263,31.52,66.14z" fill="#F7F5DC"/><path d="M31.639,59.249l-5.383-2.318l-1.303,3.143c-2.029-0.621-4.23,0.371-5.061,2.369l-0.32,0.771     c-0.08,0.191-0.127,0.389-0.176,0.586v0.002c0.074,0.289,0.182,0.566,0.314,0.834c0.02,0.037,0.039,0.074,0.061,0.113     c0.117,0.221,0.258,0.43,0.414,0.625c0.045,0.057,0.086,0.113,0.133,0.164c0.152,0.176,0.326,0.332,0.508,0.479     c0.062,0.051,0.117,0.105,0.184,0.152c0.248,0.178,0.518,0.336,0.816,0.461l3.471,1.438c0.004,0.002,0.008,0.004,0.01,0.006     l0.771,0.318c2.123,0.881,4.561-0.129,5.441-2.252l1.785-4.312C33.121,60.599,32.553,59.64,31.639,59.249z" fill="#EAE8C3"/><path d="M55.428,61.188l-0.32-0.77c-0.83-2-3.031-2.992-5.062-2.369l-0.59-1.424l-6.094,2.623     c-0.912,0.391-1.482,1.35-1.666,2.578l1.785,4.312c0.883,2.123,3.316,3.133,5.441,2.252l0.77-0.318     c0.004-0.002,0.006-0.004,0.01-0.006l3.473-1.438C55.299,65.749,56.307,63.312,55.428,61.188z" fill="#F7F5DC"/><path d="M54.172,66.017c0.182-0.146,0.355-0.303,0.508-0.479c0.049-0.051,0.09-0.107,0.135-0.164     c0.154-0.195,0.295-0.404,0.412-0.625c0.021-0.039,0.043-0.076,0.062-0.113c0.131-0.268,0.24-0.545,0.312-0.834l0.002-0.002     c-0.051-0.197-0.096-0.395-0.176-0.586l-0.32-0.771c-0.83-1.998-3.031-2.99-5.062-2.369l-1.301-3.143l-5.383,2.318     c-0.912,0.391-1.482,1.35-1.666,2.578l1.785,4.312c0.883,2.123,3.316,3.133,5.441,2.252l0.77-0.318     c0.004-0.002,0.006-0.004,0.01-0.006l3.473-1.438c0.297-0.125,0.566-0.283,0.816-0.461     C54.055,66.122,54.109,66.067,54.172,66.017z" fill="#EAE8C3"/></g><g><g><circle cx="37.5" cy="43.38" fill="#EAE8C3" r="1.875"/><path d="M37.5,42.868c-0.795,0-1.469,0.496-1.742,1.193c0.273,0.697,0.947,1.193,1.742,1.193      s1.471-0.496,1.744-1.193C38.971,43.364,38.295,42.868,37.5,42.868z" fill="#D1CD9D"/></g><g><circle cx="37.5" cy="49.468" fill="#EAE8C3" r="1.875"/><path d="M37.5,48.954c-0.795,0-1.469,0.496-1.742,1.195c0.273,0.697,0.947,1.191,1.742,1.191      s1.471-0.494,1.744-1.191C38.971,49.45,38.295,48.954,37.5,48.954z" fill="#D1CD9D"/></g></g></g><g><path d="M47.893,18.847v10.492c0,5.207-4.221,9.43-9.426,9.43h-2.576c-5.205,0-9.428-4.223-9.428-9.43V18.847    H47.893z" fill="#FFE6E1"/><path d="M47.893,17.321v10.492c0,5.207-4.221,9.428-9.426,9.428h-2.576c-5.205,0-9.428-4.221-9.428-9.428V17.321    H47.893z" fill="#F2D1C9"/><path d="M26.463,26.187c0.35,0.145,0.732,0.225,1.133,0.225h11.867c1.215,0,2.256-0.732,2.717-1.777    c0.455,1.045,1.498,1.777,2.713,1.777h3v-6.025h-21.43V26.187z" fill="#E8B6AC"/><path d="M26.463,24.649c0.35,0.145,0.732,0.223,1.133,0.223h11.867c1.215,0,2.256-0.729,2.717-1.775    c0.455,1.047,1.498,1.775,2.713,1.775h3v-6.025h-21.43V24.649z" fill="#EAB818"/><path d="M37.178,18.114c5.895,0,10.668,1.594,10.668,3.562v2.33c0-1.967-4.773-3.561-10.668-3.561    c-5.893,0-10.67,1.594-10.67,3.561v-2.33C26.508,19.708,31.285,18.114,37.178,18.114z" fill="#ED9015"/><g><g><path d="M37.16,15.659c6.189,0,11.205,1.676,11.205,3.742v3.543H48.35c-0.158-2.02-5.1-3.643-11.189-3.643      s-11.033,1.623-11.193,3.643h-0.016v-3.543C25.951,17.335,30.971,15.659,37.16,15.659z" fill="#F7F5DC"/><path d="M37.16,16.854c6.189,0,11.205,1.676,11.205,3.74v2.447c0-2.064-5.016-3.742-11.205-3.742      s-11.209,1.678-11.209,3.742v-2.447C25.951,18.53,30.971,16.854,37.16,16.854z" fill="#EAE8C3"/><g><path d="M37.16,15.659c-4.557,0-8.473,0.914-10.227,2.215c0.242-0.871,0.373-1.777,0.373-2.715       c0-1.746-0.449-3.395-1.227-4.867c2.234-2.443,5.586-4.002,9.338-4.002c6.732,0,12.186,5.002,12.186,11.17       c0,0.186-0.023,0.375-0.033,0.564C45.924,16.64,41.893,15.659,37.16,15.659z" fill="#1BC1A9"/></g><path d="M35.418,8.458c6.107,0,11.162,4.115,12.047,9.486c-1.707-1.342-5.664-2.285-10.305-2.285      c-4.266,0-7.971,0.799-9.863,1.971c0.002-0.104,0.01-0.203,0.01-0.305c0-0.371-0.023-0.734-0.064-1.094      c0.041-0.352,0.064-0.711,0.064-1.072c0-1.172-0.205-2.297-0.574-3.355C28.941,9.741,32.016,8.458,35.418,8.458z" fill="#0CAFAF"/><path d="M44.369,16.546c-1.945-0.551-4.457-0.887-7.209-0.887c-4.266,0-7.971,0.799-9.863,1.971      c0.002-0.104,0.01-0.203,0.01-0.305c0-0.371-0.023-0.734-0.064-1.094c0.016-0.139,0.027-0.277,0.037-0.418      c2.156-1.781,5.008-2.871,8.139-2.871C38.961,12.942,42.143,14.333,44.369,16.546z" fill="#109BAD"/><path d="M26.477,11.683c0,1.43-1.164,2.594-2.596,2.594c-1.434,0-2.594-1.164-2.594-2.594      c0-1.436,1.16-2.598,2.594-2.598C25.312,9.085,26.477,10.247,26.477,11.683z" fill="#F7F5DC"/><path d="M26.041,10.245c0.275,0.41,0.436,0.904,0.436,1.438c0,0.758-0.328,1.438-0.848,1.91      c-0.273-0.41-0.434-0.902-0.434-1.434C25.195,11.399,25.521,10.72,26.041,10.245z" fill="#EAE8C3"/></g></g><g><g><path d="M42.963,28.853c-0.627,0-1.137-0.51-1.137-1.137s0.51-1.137,1.137-1.137c0.626,0,1.135,0.51,1.135,1.137      S43.589,28.853,42.963,28.853z" fill="#1573BA"/></g><g><path d="M31.395,28.853c-0.626,0-1.135-0.51-1.135-1.137s0.509-1.137,1.135-1.137s1.135,0.51,1.135,1.137      S32.021,28.853,31.395,28.853z" fill="#1573BA"/></g></g><g><g><path d="M52.387,17.356h1.369v5.43c0,2.482-2.014,4.496-4.494,4.496h-1.369v-5.432      C47.893,19.37,49.904,17.356,52.387,17.356z" fill="#FFE6E1"/><path d="M52.387,19.044h1.369v3.742c0,2.482-2.014,4.496-4.494,4.496h-1.369v-3.744      C47.893,21.058,49.904,19.044,52.387,19.044z" fill="#F2D1C9"/></g><g><path d="M21.969,17.356H20.6v5.43c0,2.482,2.012,4.496,4.494,4.496h1.369v-5.432      C26.463,19.37,24.451,17.356,21.969,17.356z" fill="#FFE6E1"/><path d="M26.463,23.538v3.744h-1.369c-2.482,0-4.494-2.014-4.494-4.496v-3.742h1.369      C24.451,19.044,26.463,21.058,26.463,23.538z" fill="#F2D1C9"/></g></g><path d="M42.428,30.62c0,2.9-2.35,5.252-5.25,5.252c-2.898,0-5.248-2.352-5.248-5.252H42.428z" fill="#AA1F4D"/><path d="M40.428,34.737c-0.895,0.709-2.02,1.135-3.25,1.135c-1.227,0-2.354-0.426-3.248-1.135    c0.475-1.336,1.748-2.297,3.248-2.297C38.68,32.44,39.955,33.401,40.428,34.737z" fill="#BC2A54"/></g></g></svg>